P2
# Here's a comment
3 3
255
255   0   0
  0 255   0
  0   0 255
