P2
150 85
255
255 255 255 255 255 255 255 255 255 255 255 255 255 255 255 255 255
255 255 255 255 255 255 255 255 255 255 255 255 255 255 255 255 255
255 255 255 255 255 255 255 255 255 255 255 255 255 255 255 255 255
255 255 255 255 255 255 255 255 255 255 255 255 255 255 255 255 255
255 255 255 255 255 255 255 255 255 255 255 255 255 255 255 255 255
255 255 255 255 255 255 255 255 255 255 255 255 255 255 255 255 255
255 255 255 255 255 255 255 255 255 255 255 255 255 255 255 255 255
255 255 255 255 255 255 255 255 255 255 255 255 255 255 255 255 255
255 255 255 255 255 255 255 255 255 255 255 255 255 255 255 255 255
255 255 255 255 255 255 255 255 255 255 255 255 255 255 255 255 255
255 255 255 255 255 255 255 255 255 255 255 255 255 255 255 255 255
255 255 255 255 255 255 255 255 255 255 255 255 255 255 255 255 255
255 255 255 255 255 255 255 255 255 255 255 255 255 255 255 255 255
255 255 255 255 255 255 255 255 255 255 255 255 255 255 255 255 255
255 255 255 255 255 255 255 255 255 255 255 255 255 255 255 255 255
255 255 255 255 255 255 255 255 255 255 255 255 255 255 255 255 255
255 255 255 255 255 255 255 255 255 255 255 255 255 255 255 255 255
255 255 255 255 255 255 255 255 255 255 255 255 255 255 255 255 255
255 255 255 255 255 255 255 255 255 255 255 255 255 255 255 255 255
255 255 255 255 255 255 255 255 255 255 255 255 255 255 255 255 255
255 255 255 255 255 255 255 255 255 255 255 255 255 255 255 255 255
255 255 255 255 255 255 255 255 255 255 255 255 255 255 255 255 255
255 255 255 255 255 255 255 255 255 255 255 255 255 255 255 255 255
255 255 255 255 255 255 255 255 255 255 255 255 255 255 255 255 255
255 255 255 255 255 255 255 255 255 255 255 255 255 255 255 255 255
255 255 255 255 255 255 255 255 255 255 255 255 255 255 255 255 255
255 255 255 255 255 255 255 255 255 255 255 255 255 255 255 255 255
255 255 255 255 255 255 255 255 255 255 255 255 255 255 255 255 255
255 255 255 255 255 255 255 255 255 255 255 255 255 255 255 255 255
255 255 255 255 255 255 255 255 255 255 255 255 255 255 255 255 255
255 255 255 255 255 255 255 255 255 255 255 255 255 255 255 255 255
255 255 255 255 255 255 255 255 255 255 255 255 255 255 255 255 255
255 255 255 255 255 255 255 255 255 255 255 255 255 255 255 255 255
255 255 255 255 255 255 255 255 255 255 255 255 255 255 255 255 255
255 255 255 255 255 255 255 255 255 255 255 255 255 255 255 255 255
255 255 255 255 255 255 255 255 255 255 255 255 255 255 255 255 255
255 255 255 255 255 255 255 255 255 255 255 255 255 255 255 255 255
255 255 255 255 255 255 255 255 255 255 255 255 255 255 255 255 255
255 255 255 255 255 255 255 255 255 255 255 255 255 255 255 255 255
255 255 255 255 255 255 255 255 255 255 255 255 255 255 255 255 255
255 255 255 255 255 255 255 255 255 255 255 255 255 255 255 255 255
255 255 255 255 255 255 255 255 255 255 255 255 255 255 255 255 255
255 255 255 255 255 255 255 255 255 255 255 255 255 255 255 255 255
255 255 255 255 255 255 255 255 255 255 255 255 255 255 255 255 255
255 255 255 255 255 255 255 255 255 255 255 255 255 255 255 255 255
255 255 255 255 255 255 255 255 255 255 255 255 255 255 255 255 255
255 255 255 255 255 255 255 255 255 255 255 255 255 255 255 255 255
255 255 255 255 255 255 255 255 255 255 255 255 255 255 255 255 255
255 255 255 255 255 255 255 255 255 255 255 255 255 255 255 255 255
255 255 255 255 255 255 255 255 255 255 255 255 255 255 255 255 255
255 255 255 255 255 255 255 255 255 255 255 255 255 255 255 255 255
255 255 255 255 255 255 255 255 255 255 255 255 255 255 255 255 255
255 255 255 255 255 255 255 255 255 255 255 255 255 255 255 255 255
255 255 255 255 255 255 255 255 255 255 255 255 255 255 255 255 255
255 255 255 255 255 255 255 255 255 255 255 255 255 255 255 255 255
255 255 255 255 255 255 255 255 255 255 255 255 255 255 255 255 255
255 255 255 255 255 255 255 255 255 255 255 255 255 255 255 255 255
255 255 255 255 255 255 255 255 255 255 255 255 255 255 255 255 255
255 255 255 255 255 255 255 255 255 255 255 255 255 255 255 255 255
255 255 255 255 255 255 255 255 255 255 255 255 255 255 255 255 255
255 255 255 255 255 255 255 255 255 255 255 255 255 255 255 255 255
255 255 255 255 255 255 255 255 255 255 255 255 255 255 255 255 255
255 255 255 255 255 255 255 255 255 255 255 255 255 255 255 255 255
255 255 255 255 255 255 255 255 255 255 255 255 255 255 255 255 255
255 255 255 255 255 255 255 255 255 255 255 255 255 255 255 255 255
255 255 255 255 255 255 255 255 255 255 255 255 255 255 255 255 255
255 255 255 255 255 255 255 255 255 255 255 255 255 255 255 255 255
255 255 255 255 255 255 255 255 255 255 255 255 255 255 255 255 255
255 255 255 255 255 255 255 255 255 255 255 255 255 255 255 255 255
255 255 255 255 255 255 255 255 255 255 255 255 255 255 255 255 255
255 255 255 255 255 255 255 255 255 255 255 255 255 255 255 255 255
255 255 255 255 255 255 255 255 255 255 255 255 255 255 255 255 255
255 255 255 255 255 255 255 255 255 255 255 255 255 255 255 255 255
255 255 255 255 255 255 255 255 255 255 255 255 255 255 255 255 255
255 255 255 255 255 255 255 255 255 255 255 255 255 255 255 255 255
255 255 255 255 255 255 255 255 255 255 255 255 255 255 255 255 255
255 255 255 255 255 255 255 255 255 255 255 255 255 255 255 255 255
255 255 255 255 255 255 255 255 255 255 255 255 255 255 255 255 255
255 255 255 255 255 255 255 255 255 255 255 255 255 255 255 255 255
255 255 255 255 255 255 255 255 255 255 255 255 255 255 255 255 255
255 255 255 255 255 255 255 255 255 255 255 255 255 255 255 255 255
255 255 255 255 255 255 255 255 255 255 255 255 255 255 255 255 255
255 255 255 255 255 255 255 255 255 255 255 255 255 255 255 255 255
255 255 255 255 255 255 255 255 255 255 255 255 255 255 255 255 255
255 255 255 255 255 255 255 255 255 255 255 255 255 255 255 255 255
255 255 255 255 255 255 255 255 255 255 255 255 255 255 255 255 255
255 255 255 255 255 255 255 255 255 255 255 255 255 255 255 255 255
255 255 255 255 255 255 255 255 255 255 255 255 255 255 255 255 255
255 255 255 255 255 255 255 255 255 255 255 255 255 255 255 255 255
255 255 255 255 255 255 255 255 255 255 255 255 255 255 255 255 255
255 255 255 255 255 255 255 255 255 255 255 255 255 255 255 255 255
255 255 255 255 255 255 255 255 255 255 255 255 255 255 255 255 255
255 255 255 255 255 255 255 255 255 255 255 255 255 255 255 255 255
255 255 255 255 255 255 255 255 255 255 255 255 255 255 255 255 255
255 255 255 255 255 255 255 255 255 255 255 255 255 255 255 255 255
255 255 255 255 255 255 255 255 255 255 255 255 255 255 255 255 255
255 255 255 255 255 255 255 255 255 255 255 255 255 255 255 255 255
255 255 255 255 255 255 255 255 255 255 255 255 255 255 255 255 255
255 255 255 255 255 255 255 255 255 255 255 255 255 255 255 255 255
255 255 255 255 255 255 255 255 255 255 255 255 255 255 255 255 255
255 255 255 255 255 255 255 255 255 255 255 255 255 255 255 255 255
255 255 255 255 255 255 255 255 255 255 255 255 255 255 255 255 255
255 255 255 255 255 255 255 255 255 255 255 255 255 255 255 255 255
255 255 255 255 255 255 255 255 255 255 255 255 255 255 255 255 255
255 255 255 255 255 255 255 255 255 255 255 255 255 255 255 255 255
255 255 255 255 255 255 255 255 255 255 255 255 255 255 255 255 255
255 255 255 255 255 255 255 255 255 255 255 255 255 255 255 255 255
255 255 255 255 255 255 255 255 255 255 255 255 255 255 255 255 255
255 255 255 255 255 255 255 255 255 255 255 255 255 255 255 255 255
255 255 255 255 255 255 255 255 255 255 255 255 255 255 255 255 255
255 255 255 255 255 255 255 255 255 255 255 255 255 255 255 255 255
255 255 255 255 255 255 255 255 255 255 255 255 255 255 255 255 255
255 255 255 255 255 255 255 255 255 255 255 255 255 255 255 255 255
255 255 255 255 255 255 255 255 255 255 255 255 255 255 255 255 255
255 255 255 255 255 255 255 255 255 255 255 255 255 255 255 255 255
255 255 255 255 255 255 255 255 255 255 255 255 255 255 255 255 255
255 255 255 255 255 255 255 255 255 255 255 255 255 255 255 255 255
255 255 255 255 255 255 255 255 255 255 255 255 255 255 255 255 255
255 255 255 255 255 255 255 255 255 255 255 255 255 255 255 255 255
255 255 255 255 255 255 255 255 255 255 255 255 255 255 255 255 255
255 255 255 255 255 255 255 255 255 255 255 255 255 255 255 255 255
255 255 255 255 255 255 255 255 255 255 255 255 255 255 255 255 255
255 255 255 255 255 255 255 255 255 255 255 255 255 255 255 255 255
255 255 255 255 255 255 255 255 255 255 255 255 255 255 255 255 255
255 255 255 255 255 255 255 255 255 255 255 255 255 255 255 255 255
255 255 255 255 255 255 255 255 255 255 255 255 255 255 255 255 255
255 255 255 255 255 255 255 255 255 255 255 255 255 255 255 255 255
255 255 255 255 255 255 255 255 255 255 255 255 255 255 255 255 255
255 255 255 255 255 255 255 255 255 255 255 255 255 255 255 255 255
255 255 255 255 255 255 255 255 255 255 255 255 255 255 255 255 255
255 255 255 255 255 255 255 255 255 255 255 255 255 255 255 255 255
255 255 255 255 255 255 255 255 255 255 255 255 255 255 255 255 255
255 255 255 255 255 255 255 255 255 255 255 255 255 255 255 255 255
255 255 255 255 255 249 241 225 220 217 217 222 238 243 249 255 255
255 255 255 255 255 255 255 255 255 249 241 225 220 214 221 241 246
255 255 255 255 255 255 255 255 255 255 255 255 255 255 255 255 246
241 224 219 216 216 221 241 246 255 255 255 255 255 255 255 255 255
255 255 255 255 255 255 255 255 255 255 255 255 255 249 232 218 212
220 240 249 255 255 255 255 255 255 255 255 255 255 255 252 243 229
217 211 213 222 240 255 255 255 255 255 255 255 255 255 255 255 255
255 249 240 231 222 216 218 239 255 255 255 255 255 255 255 255 255
255 255 255 255 255 255 255 255 255 255 255 255 255 255 255 255 250
220 189 147 126 121 116 114 114 116 118 130 134 160 191 233 255 255
255 255 255 255 250 211 161 123 118 112 111 113 120 129 165 212 248
255 255 255 255 255 255 255 255 255 255 250 220 184 145 121 115 107
106 104 107 110 127 159 197 237 255 255 255 255 255 255 255 255 255
255 255 255 255 255 255 255 252 235 189 143 113 96 90 89 96 129 186
242 255 255 255 255 255 255 249 231 185 146 115 99 85 81 79 88 102 132
205 252 255 255 255 255 255 255 255 255 233 184 126 104 94 82 72 76 91
132 210 255 255 255 255 255 255 255 255 255 255 255 255 255 255 255
255 255 255 255 255 255 250 210 156 116 110 112 110 109 108 107 107
110 110 112 113 108 98 105 133 192 239 255 255 228 153 120 110 106 103
101 100 101 103 105 100 96 130 219 255 255 255 255 255 255 255 249 210
151 111 103 100 96 92 91 89 89 90 91 93 93 94 111 148 207 249 255 255
255 255 255 255 255 255 255 255 255 255 249 188 123 96 92 83 79 76 75
76 75 75 118 214 255 255 255 255 255 181 94 90 88 79 72 70 68 68 67 67
67 75 138 236 255 255 255 255 255 252 209 112 66 79 79 68 63 61 61 60
60 75 156 245 255 255 255 255 255 255 255 255 255 255 255 255 255 255
255 255 255 255 233 165 115 107 106 104 105 103 104 103 103 104 104
103 103 103 105 109 110 96 66 90 205 231 141 108 104 98 98 98 97 97 97
96 96 97 97 75 74 218 255 255 255 255 255 233 166 113 104 95 89 88 87
87 87 87 86 85 84 84 84 86 88 87 88 140 249 255 255 255 255 255 255
255 255 255 255 231 145 102 94 81 75 75 75 74 74 74 73 73 71 92 207
255 255 255 255 141 71 94 72 68 68 67 67 67 66 65 66 65 62 120 235 255
255 255 252 202 91 67 86 80 63 61 61 61 59 60 60 59 58 146 245 255 255
255 255 255 255 255 255 255 255 255 255 255 255 255 252 220 140 104
105 103 103 103 103 103 103 102 103 103 102 102 101 102 101 101 101 99
68 39 159 151 104 100 98 97 97 97 97 96 96 94 95 95 93 76 51 210 255
255 255 252 223 144 105 97 89 89 88 87 87 87 86 86 85 85 84 83 83 84
83 82 80 111 245 255 255 255 255 255 255 255 255 255 255 177 94 90 77
74 74 74 74 74 73 72 72 71 71 69 104 229 255 255 255 138 68 87 70 68
67 67 67 66 66 66 66 65 65 59 146 252 255 255 224 93 64 85 81 61 61 61
60 60 60 59 59 59 58 59 159 255 255 255 255 255 255 255 255 255 255
255 255 255 255 255 222 129 102 102 102 102 102 101 99 94 89 86 85 86
90 93 99 101 100 101 99 94 64 36 116 108 100 98 98 97 89 82 78 79 84
90 94 93 93 75 48 209 255 255 255 226 133 103 92 89 88 88 86 85 82 77
74 72 73 75 78 82 83 82 82 82 79 110 245 255 255 255 255 255 255 255
255 255 255 173 96 83 74 75 73 71 69 68 70 72 72 72 71 71 64 152 252
255 255 134 59 78 68 65 63 61 61 61 64 65 66 65 64 64 75 218 255 248
125 60 77 85 64 60 60 60 57 55 56 59 59 58 58 57 81 218 255 255 255
255 255 255 255 255 255 255 255 255 255 233 139 99 101 100 101 101 98
85 69 53 51 60 87 110 111 93 83 81 92 97 99 92 59 31 77 98 97 97 95 80
55 46 81 129 118 84 78 90 91 73 44 208 255 255 236 144 103 90 88 88 87
84 77 63 63 78 103 116 117 107 88 73 67 75 80 82 77 108 245 255 255
255 255 255 255 255 255 255 255 172 94 81 74 71 64 65 82 62 49 63 72
71 71 70 69 89 232 255 255 130 49 67 58 61 78 92 60 38 50 61 65 64 64
64 57 159 255 198 65 65 88 71 61 60 60 57 47 33 39 52 58 58 58 58 54
140 252 255 255 255 255 255 255 255 255 255 255 255 249 162 98 99 100
99 99 90 70 44 37 59 148 216 241 255 251 241 204 153 101 81 90 88 55
30 76 97 96 96 89 55 33 131 237 255 251 221 137 77 84 70 42 207 255
249 167 105 92 88 87 87 82 63 59 115 186 233 248 255 255 251 241 203
151 92 65 74 76 106 245 255 255 255 255 255 255 255 255 255 255 169 88
78 69 59 115 201 241 223 137 46 66 71 70 70 70 61 188 255 255 125 48
74 123 191 230 248 223 110 34 54 65 63 64 63 60 123 248 132 53 75 84
62 61 60 57 74 162 59 31 44 58 59 58 58 56 87 228 255 255 255 255 255
255 255 255 255 255 255 205 104 98 98 98 98 88 59 33 33 106 212 255
255 255 255 255 255 255 255 238 180 103 76 50 33 78 95 95 95 88 55 37
187 255 255 255 255 252 184 87 67 42 207 255 211 111 94 87 87 86 80 57
72 183 247 255 255 255 255 255 255 255 255 255 234 178 96 62 104 245
255 255 255 255 255 255 255 255 255 255 167 78 71 64 161 241 255 255
255 237 86 60 71 71 69 69 62 159 255 255 202 173 225 255 255 255 255
255 216 58 52 69 64 64 64 60 107 221 75 56 84 74 61 61 60 56 178 255
166 32 41 56 60 58 58 57 51 180 255 255 255 255 255 255 255 255 255
255 252 142 95 98 97 97 89 62 32 30 106 234 255 255 255 255 255 255
255 255 255 255 255 234 170 79 46 78 94 94 94 92 73 42 126 248 255 255
255 255 255 194 82 41 207 252 153 96 88 87 86 82 59 67 201 255 255 255
255 255 255 255 255 255 255 255 255 255 231 166 122 245 255 255 255
255 255 255 255 255 255 255 164 70 66 156 248 255 255 255 255 255 153
61 74 70 69 68 62 136 251 255 255 255 255 255 255 255 255 255 234 73
58 77 65 63 62 60 106 184 55 61 85 66 61 59 58 79 237 255 230 58 40 52
63 58 57 57 54 132 252 255 255 255 255 255 255 255 255 255 224 103 96
97 96 95 74 38 25 70 223 255 255 255 255 255 255 255 255 255 255 255
255 255 255 230 207 116 91 93 93 92 91 76 60 133 237 255 255 255 255
255 204 130 222 230 112 90 87 86 85 69 55 180 255 255 255 255 255 255
255 255 255 255 255 255 255 255 255 255 240 255 255 255 255 255 255
255 255 255 255 255 161 67 136 237 255 255 255 255 255 255 183 67 78
70 69 68 63 133 251 255 255 255 255 255 255 255 255 255 202 64 70 84
64 63 62 59 121 140 44 66 82 62 61 60 56 120 248 255 255 105 40 51 64
59 57 57 56 93 241 255 255 255 255 255 255 255 255 255 179 94 95 96 95
87 55 27 30 158 255 255 255 255 255 255 255 255 255 255 255 255 255
255 255 255 255 166 87 92 92 91 92 97 89 64 109 188 252 255 255 255
255 255 255 188 97 88 86 86 80 52 111 241 255 255 255 255 255 255 255
255 255 255 255 255 255 255 255 255 255 255 255 255 255 255 255 255
255 255 255 255 166 105 232 255 255 255 255 255 255 255 171 71 81 69
69 68 60 150 255 255 255 255 255 252 233 228 214 173 98 68 88 78 63 62
62 57 154 114 46 70 77 60 60 60 55 162 255 255 255 148 41 51 65 61 56
56 55 72 227 255 255 255 255 255 255 255 255 252 138 92 94 94 94 78 42
25 51 223 255 255 255 255 255 255 255 255 255 255 255 255 255 255 255
255 255 217 100 88 91 91 90 91 96 97 82 72 124 219 255 255 255 255 252
154 90 85 85 85 73 42 173 255 255 255 255 255 255 255 255 255 255 255
255 255 255 255 255 255 255 255 255 255 255 255 255 255 255 255 255
255 219 228 255 255 255 255 255 255 255 252 143 73 82 69 68 67 59 170
255 255 255 255 255 239 109 93 95 74 76 82 78 64 62 62 60 67 202 99 46
72 72 61 60 59 56 186 255 255 255 177 45 50 64 63 56 56 56 60 214 255
255 255 255 255 255 255 255 243 115 91 93 93 92 72 36 27 90 244 255
255 255 255 255 255 255 255 255 255 255 255 255 255 255 255 255 255
171 83 88 90 90 90 88 92 97 93 74 78 156 241 255 255 246 124 88 84 85
84 65 54 212 255 255 255 255 255 255 255 255 255 255 255 255 255 255
255 255 255 255 255 255 255 255 255 255 255 255 255 255 255 255 255
255 255 255 255 255 255 255 230 88 86 78 68 67 67 66 213 255 255 255
255 255 239 91 78 88 70 68 65 62 63 62 60 55 154 237 80 48 72 68 60 59
59 61 210 255 255 255 189 51 52 65 64 56 56 55 59 200 255 255 255 255
255 255 255 255 237 104 92 92 92 91 67 35 29 116 248 255 255 255 255
255 255 255 255 255 255 255 255 255 255 255 255 255 255 248 161 81 85
89 88 88 88 88 91 93 82 60 116 231 255 240 110 86 84 84 82 61 64 234
255 255 255 255 255 255 255 255 255 255 255 255 255 255 255 255 255
255 255 255 255 255 255 255 255 255 255 255 255 255 255 255 255 255
255 255 255 252 157 75 91 70 68 67 62 99 241 255 255 255 255 255 239
88 74 79 64 63 63 62 62 63 56 89 237 241 73 48 72 66 60 60 59 64 217
255 255 255 200 54 51 65 65 57 56 56 54 189 255 255 255 255 255 255
255 255 231 102 91 92 92 90 68 36 32 125 251 255 255 255 255 255 255
255 255 255 255 255 255 255 255 255 255 255 255 255 255 175 85 80 87
87 87 87 86 87 90 83 57 112 231 234 103 84 84 83 82 61 67 234 255 255
255 255 255 255 255 255 255 255 255 255 255 255 255 255 255 255 255
255 255 255 255 255 255 255 255 255 255 255 255 255 255 255 255 255
255 218 90 88 81 68 67 67 58 158 255 255 255 255 255 255 238 82 61 71
63 63 63 62 62 61 61 65 167 241 70 50 70 66 59 59 58 63 217 255 255
255 200 55 53 65 65 57 55 56 51 189 255 255 255 255 255 255 255 255
237 97 90 90 91 90 71 39 33 106 252 255 255 255 255 255 255 255 255
255 255 255 255 255 255 255 255 255 255 255 255 255 202 122 73 82 86
86 86 86 85 87 77 50 124 227 105 83 82 82 80 63 63 227 255 255 255 255
255 255 255 255 255 255 255 255 255 255 255 255 255 255 255 255 255
255 255 255 255 255 255 255 255 255 255 255 255 255 255 255 249 130 78
90 70 68 67 62 82 230 255 255 255 255 255 255 238 76 51 63 62 61 62 62
62 62 61 60 70 201 78 49 68 65 58 59 57 61 217 255 255 255 193 56 53
66 66 56 55 54 54 193 255 255 255 255 255 255 255 255 236 106 88 90 90
89 77 45 36 81 238 255 255 255 255 255 255 255 255 255 255 255 255 255
255 255 255 255 252 248 255 255 255 241 171 88 74 84 86 85 85 84 83 65
49 178 107 82 82 82 81 68 49 199 255 255 255 255 255 255 255 255 255
255 255 255 255 255 255 255 255 255 255 255 255 255 255 255 255 255
255 255 255 255 255 255 255 255 255 252 175 81 91 78 67 67 65 58 175
255 255 255 255 255 255 255 248 136 84 83 74 46 51 59 61 61 60 60 56
129 84 47 65 65 58 59 58 59 210 255 255 255 184 54 53 69 65 55 55 55
54 200 255 255 255 255 255 255 255 255 252 125 86 89 89 89 85 55 39 48
200 255 255 255 255 255 255 255 255 255 255 255 255 255 255 255 255
250 166 122 215 255 255 255 255 228 132 70 80 83 84 83 83 74 48 115
133 80 81 81 80 74 48 139 255 255 255 255 255 255 255 255 255 255 255
255 255 255 255 255 255 255 255 255 255 255 255 255 255 255 255 255
255 255 255 255 255 255 255 218 94 87 85 68 67 66 62 103 241 255 255
255 255 255 255 255 255 252 238 238 230 152 43 48 59 61 61 61 58 89 95
43 62 65 59 58 58 56 193 255 255 255 160 52 55 72 64 55 54 54 61 213
255 255 255 255 255 255 255 255 255 163 85 88 87 88 90 72 45 40 124
245 255 255 255 255 255 255 255 255 255 255 255 255 255 255 255 245
129 69 114 227 255 255 255 255 252 171 86 80 83 82 82 79 54 66 144 80
81 80 81 78 61 81 221 255 255 255 255 255 255 255 255 255 255 255 255
255 255 255 255 252 255 255 255 255 255 255 255 255 255 255 255 255
255 255 255 255 240 125 79 90 70 66 67 63 75 209 255 255 255 255 255
255 255 255 255 255 255 255 255 251 108 42 59 61 60 59 59 68 105 38 57
64 59 58 58 53 167 255 255 252 128 52 57 76 62 55 55 54 70 227 255 255
255 255 255 255 255 255 255 212 90 86 87 87 89 89 62 46 50 169 255 255
255 255 255 255 255 255 255 255 255 255 255 250 206 127 111 90 55 130
244 255 255 255 255 255 172 79 82 82 82 79 58 56 183 85 80 80 79 79 74
54 125 245 255 255 255 255 255 255 255 255 255 255 255 255 255 249 209
146 230 255 255 255 255 255 255 255 255 255 255 255 255 255 255 249
152 78 92 75 67 66 65 56 175 255 255 255 255 255 242 233 255 255 255
255 255 255 255 255 146 45 62 63 60 59 59 59 130 37 52 64 59 57 57 54
129 252 255 235 82 54 62 78 59 55 54 53 94 241 255 255 255 255 255 255
255 255 255 245 125 83 86 86 86 93 89 62 51 68 177 252 255 255 255 255
255 255 255 255 255 249 234 166 104 59 91 93 64 46 138 241 255 255 255
255 242 117 80 81 81 80 59 47 209 132 76 80 79 78 78 71 53 137 238 255
255 255 255 255 255 255 255 255 255 252 231 167 105 96 226 255 255 255
255 255 255 255 255 255 255 255 255 255 252 184 82 91 80 67 67 65 61
132 248 255 255 255 255 255 204 102 179 243 255 255 255 255 255 252
135 52 68 66 59 59 59 61 164 56 46 62 59 58 57 56 85 234 255 188 59 56
71 77 55 54 54 51 129 248 255 255 255 255 255 255 255 255 255 255 189
82 84 86 85 86 96 95 70 57 67 136 221 249 255 255 255 255 255 249 233
183 125 102 85 51 81 89 84 63 50 125 225 255 255 255 252 139 81 81 80
79 57 56 220 191 76 78 78 78 78 78 75 59 108 184 242 255 255 255 255
255 252 243 216 167 105 88 90 89 224 255 255 255 255 255 255 255 255
255 255 255 255 255 209 95 86 85 67 66 66 61 89 223 248 248 248 248
248 255 205 73 92 127 211 255 255 255 248 213 84 60 80 66 59 59 58 69
213 92 40 57 59 57 57 57 54 171 228 113 51 61 82 68 54 54 54 49 185
255 255 255 255 255 255 255 255 255 255 255 248 137 77 85 84 84 86 97
103 88 70 62 81 118 155 182 195 197 177 153 119 100 94 85 72 43 74 83
87 90 75 60 80 135 189 209 185 105 83 80 79 76 50 79 241 252 148 71 77
77 77 77 80 81 74 66 100 144 178 193 197 182 159 124 97 89 95 88 73 81
223 255 255 255 255 255 255 255 255 255 255 255 255 227 114 82 90 68
66 65 62 45 79 108 107 107 106 105 104 128 172 73 87 68 81 119 157 173
157 90 62 78 84 61 59 59 57 89 241 173 37 50 59 57 57 56 55 74 98 52
59 75 81 57 54 53 53 78 230 255 255 255 255 255 255 255 255 255 255
255 255 233 105 80 83 84 84 84 90 103 106 100 91 87 83 88 92 98 100
101 94 85 83 80 63 36 68 82 81 86 94 94 87 80 82 91 96 92 80 79 79 70
43 135 251 255 236 104 72 76 77 76 76 78 82 88 86 83 80 81 83 84 90 95
95 86 76 72 71 76 222 255 255 255 255 255 255 255 255 255 255 255 240
128 76 90 72 66 66 65 62 58 60 59 59 59 58 58 58 56 106 68 80 65 62 64
64 63 65 69 79 82 67 59 58 59 55 135 251 241 79 41 55 57 56 56 56 55
54 58 69 77 63 54 55 54 51 145 251 255 255 255 255 255 255 255 255 255
255 255 255 255 203 90 78 83 84 83 83 84 89 94 100 103 104 102 99 94
88 82 83 81 82 78 56 31 64 80 81 81 81 87 95 99 101 98 89 79 79 78 76
56 66 216 255 255 255 202 90 71 76 76 76 75 75 76 80 85 88 91 89 88 84
77 74 72 71 71 70 72 221 255 255 255 255 255 255 255 255 255 255 249
149 77 91 77 66 66 65 66 64 65 64 64 64 63 63 62 62 61 101 59 69 63 61
61 61 63 65 67 66 61 59 59 58 57 65 205 255 255 184 44 46 56 57 56 56
55 55 58 60 56 54 54 54 51 74 223 255 255 255 255 255 255 255 255 255
255 255 255 255 255 255 203 98 74 81 82 82 83 83 83 82 82 82 83 82 82
82 82 82 81 81 75 50 39 65 78 80 80 80 80 80 80 79 78 79 78 78 77 65
55 177 255 255 255 255 255 208 101 67 74 75 75 74 74 74 74 73 73 73 72
72 72 71 71 71 71 67 67 220 255 255 255 255 255 255 255 255 255 252
172 82 90 80 66 65 65 65 65 65 64 64 63 64 64 63 62 63 59 95 49 61 62
61 61 60 60 60 60 60 59 58 59 57 53 154 251 255 255 255 149 47 47 54
55 56 55 55 55 54 54 54 53 52 53 174 255 255 255 255 255 255 255 255
255 255 255 255 255 255 255 255 255 228 128 71 76 80 82 81 82 81 81 81
82 81 81 81 81 80 75 65 68 105 187 169 88 72 78 80 79 79 79 79 78 79
78 75 64 72 169 248 255 255 255 255 255 255 231 132 69 68 73 74 73 73
73 73 73 72 72 71 71 71 70 67 62 71 125 237 255 255 255 255 255 255
255 255 255 239 98 85 83 67 66 65 65 65 64 64 64 63 63 63 62 63 62 62
57 118 84 54 59 59 60 59 59 60 60 59 59 58 55 54 141 244 255 255 255
255 244 157 54 46 53 55 55 55 54 54 53 53 52 50 150 248 255 255 255
255 255 255 255 255 255 255 255 255 255 255 255 255 255 255 252 195
125 75 69 75 78 79 79 79 79 78 77 73 67 65 84 125 201 244 255 255 215
129 77 67 73 76 76 77 77 74 68 61 99 201 255 255 255 255 255 255 255
255 255 252 194 122 71 62 67 69 71 71 70 70 70 68 66 61 59 80 124 205
255 255 255 255 255 255 255 255 255 255 255 234 89 76 66 63 64 64 64
63 62 62 62 61 60 61 60 59 60 59 54 146 231 159 80 52 55 57 59 59 59
57 54 55 70 174 244 255 255 255 255 255 255 255 192 117 57 47 52 53 53
53 51 51 66 163 244 255 255 255 255 255 255 255 255 255 255 255 255
255 255 255 255 255 255 255 255 255 252 214 159 116 90 76 76 73 71 75
84 100 136 184 226 255 255 255 255 255 255 252 210 149 113 87 74 70 72
83 103 177 240 255 255 255 255 255 255 255 255 255 255 255 255 252 213
160 112 85 72 70 67 66 71 80 97 138 184 226 255 255 255 255 255 255
255 255 255 255 255 255 255 251 154 108 108 107 106 106 106 105 105
104 102 102 102 101 100 100 99 97 96 171 255 255 230 178 122 80 63 61
59 78 101 156 226 255 255 255 255 255 255 255 255 255 255 251 209 145
92 63 58 63 80 125 212 255 255 255 255 255 255 255 255 255 255 255 255
255 255 255 255 255 255 255 255 255 255 255 252 215 161 119 94 80 80
77 75 79 88 104 139 186 227 255 255 255 255 255 255 252 211 152 116 91
78 75 76 87 107 179 240 255 255 255 255 255 255 255 255 255 255 255
255 252 214 162 115 89 76 75 72 71 75 84 101 141 186 227 255 255 255
255 255 255 255 255 255 255 255 255 255 251 156 112 112 111 110 110
110 109 109 108 106 106 106 105 104 104 103 101 100 173 255 255 231
180 125 84 68 66 64 82 105 158 227 255 255 255 255 255 255 255 255 255
255 251 210 148 96 68 63 68 84 128 213 255 255 255 255 255 255 255 255
255 255 255 255 255 255 255 255 255 255 255 255 255 252 198 131 84 78
84 87 88 88 88 88 87 86 82 76 74 92 131 204 245 255 255 217 135 86 76
82 85 85 86 86 83 77 70 107 204 255 255 255 255 255 255 255 255 255
252 197 128 80 71 76 78 80 80 79 79 79 77 75 70 69 89 130 207 255 255
255 255 255 255 255 255 255 255 255 235 97 85 75 72 73 73 73 72 71 71
71 70 70 70 70 69 70 69 64 151 232 164 89 62 65 67 69 69 69 67 64 65
79 178 245 255 255 255 255 255 255 255 195 124 67 57 62 63 63 63 61 61
75 167 245 255 255 255 255 255 255 255 255 255 255 255 255 255 255 255
255 255 255 230 137 84 89 93 95 94 95 94 94 94 95 94 94 94 94 93 88 79
82 116 192 175 100 85 91 93 92 92 92 92 91 92 91 88 78 85 175 249 255
255 255 255 255 255 233 141 83 82 86 87 86 86 86 86 86 85 85 84 84 84
84 81 76 84 135 238 255 255 255 255 255 255 255 255 255 240 109 97 96
81 80 79 79 79 78 78 78 77 77 77 76 77 76 76 71 128 97 69 73 73 74 73
73 74 74 73 73 72 70 69 149 245 255 255 255 255 245 164 69 61 68 70 70
70 69 69 68 68 67 65 158 249 255 255 255 255 255 255 255 255 255 255
255 255 255 255 255 255 208 113 92 98 99 99 100 100 100 99 99 99 100
99 99 99 99 99 98 98 93 70 60 84 95 97 97 97 97 97 97 96 95 96 95 95
94 84 75 185 255 255 255 255 255 213 116 85 92 93 93 92 92 92 92 91 91
91 90 90 90 89 89 89 89 85 85 223 255 255 255 255 255 255 255 255 255
252 180 99 106 97 84 84 84 84 84 84 83 83 82 83 83 82 81 82 78 111 69
80 81 80 80 79 79 79 79 79 78 77 78 76 73 164 251 255 255 255 159 67
67 74 75 75 75 75 75 74 74 74 73 72 73 182 255 255 255 255 255 255 255
255 255 255 255 255 255 255 255 209 110 100 104 105 104 104 105 109
114 119 122 122 121 118 114 108 103 104 102 103 100 80 58 87 101 102
102 102 107 115 118 120 117 109 100 100 100 98 80 89 221 255 255 255
208 110 93 98 98 98 97 97 98 101 106 108 111 109 108 105 99 96 94 93
93 93 94 225 255 255 255 255 255 255 255 255 255 255 250 162 99 111 99
89 89 88 89 87 88 87 87 87 86 86 86 86 85 120 83 92 86 85 85 85 86 88
90 89 85 83 83 82 81 88 211 255 255 193 70 71 80 81 80 80 79 79 82 84
80 79 79 79 76 96 227 255 255 255 255 255 255 255 255 255 255 255 255
255 236 127 106 108 109 109 109 114 125 128 123 115 112 108 112 116
121 123 124 118 110 108 106 91 68 95 107 106 111 118 118 112 106 107
115 119 116 106 105 105 97 74 153 252 255 239 126 99 102 103 102 102
104 107 112 111 108 106 106 108 109 114 118 118 111 102 99 98 102 227
255 255 255 255 255 255 255 255 255 255 255 242 147 102 114 99 94 94
93 90 87 89 88 88 88 87 87 87 85 128 95 106 93 90 92 92 91 93 96 105
107 95 88 87 88 84 153 252 243 105 72 84 86 85 85 85 84 83 87 96 103
91 83 84 83 81 161 252 255 255 255 255 255 255 255 255 255 255 255 249
157 107 114 113 113 115 124 129 117 102 95 111 141 172 194 205 207 190
170 142 126 121 114 103 79 105 112 116 118 106 93 110 155 200 217 197
131 112 110 109 107 85 109 243 253 166 102 107 107 107 107 110 111 105
98 126 163 191 204 207 194 175 146 124 117 122 117 104 111 228 255 255
255 255 255 255 255 255 255 255 255 255 232 138 112 118 100 98 97 95
81 109 133 132 132 131 131 130 150 186 104 116 100 111 142 174 187 174
118 95 108 113 94 92 92 91 117 243 187 74 85 92 91 91 90 89 105 125 87
92 106 111 91 88 87 87 108 234 255 255 255 255 255 255 255 255 255 255
255 202 116 117 119 118 119 127 126 106 96 104 159 228 250 255 255 255
255 255 250 237 197 150 132 118 91 115 121 117 100 90 150 231 255 255
255 253 162 115 115 114 113 96 95 227 203 111 113 113 113 113 113 110
97 137 198 245 255 255 255 255 255 253 245 224 184 134 121 122 121 230
255 255 255 255 255 255 255 255 255 255 255 255 255 218 126 119 118
104 103 103 99 121 229 249 249 249 249 249 255 215 109 124 152 220 255
255 255 249 221 117 98 114 103 97 97 96 105 221 124 82 96 97 96 96 96
93 187 233 141 91 99 116 104 93 93 93 89 199 255 255 255 255 255 255
255 255 255 255 247 154 121 123 123 123 129 125 104 96 109 194 253 255
255 255 255 255 255 255 255 255 250 239 186 137 102 127 129 106 92 164
244 255 255 255 255 245 147 118 119 119 118 102 93 219 159 115 118 118
117 117 111 97 163 242 255 255 255 255 255 255 255 255 255 255 253 236
186 138 131 232 255 255 255 255 255 255 255 255 255 255 255 255 255
253 200 120 127 118 108 108 107 104 159 250 255 255 255 255 255 215
136 196 246 255 255 255 255 255 253 161 97 109 107 102 102 102 104 184
100 92 104 102 101 100 100 122 239 255 203 102 100 111 116 99 98 98 96
157 250 255 255 255 255 255 255 255 255 255 222 130 127 128 128 129
129 109 97 100 190 255 255 255 255 255 255 255 255 255 255 255 255 255
251 218 158 146 130 104 160 247 255 255 255 255 255 192 122 124 124
124 122 106 105 201 126 123 123 122 122 118 103 157 247 255 255 255
255 255 255 255 255 255 255 255 255 255 250 220 173 236 255 255 255
255 255 255 255 255 255 255 255 255 255 255 250 177 121 132 119 113
112 111 105 195 255 255 255 255 255 245 238 255 255 255 255 255 255
255 255 173 96 109 110 108 107 107 107 160 90 102 111 107 105 105 103
160 253 255 240 124 103 109 121 107 104 103 102 133 244 255 255 255
255 255 255 255 255 255 188 131 133 132 133 134 121 101 98 159 248 255
255 255 255 255 255 255 255 255 255 255 255 255 255 255 248 163 119
152 235 255 255 255 255 253 194 131 127 129 128 128 126 108 117 174
127 128 127 128 125 113 128 230 255 255 255 255 255 255 255 255 255
255 255 255 255 255 255 255 253 255 255 255 255 255 255 255 255 255
255 255 255 255 255 255 255 244 160 126 134 120 117 117 115 123 221
255 255 255 255 255 255 255 255 255 255 255 255 255 252 147 99 112 113
112 112 112 118 145 96 110 115 112 111 111 107 191 255 255 253 162 106
110 124 114 109 109 108 120 235 255 255 255 255 255 255 255 255 253
163 135 138 138 138 135 114 102 109 216 255 255 255 255 255 255 255
255 255 255 255 255 255 255 255 255 251 192 161 227 255 255 255 255
236 168 124 131 133 134 133 133 127 109 156 169 131 132 132 131 127
109 173 255 255 255 255 255 255 255 255 255 255 255 255 255 255 255
255 255 255 255 255 255 255 255 255 255 255 255 255 255 255 255 255
255 255 255 229 141 136 135 123 122 121 118 147 245 255 255 255 255
255 255 255 255 253 243 243 237 182 105 109 116 118 118 118 116 138
142 105 118 121 116 116 116 114 211 255 255 255 188 111 114 126 120
114 113 113 118 225 255 255 255 255 255 255 255 255 242 153 141 142
142 142 133 112 105 136 243 255 255 255 255 255 255 255 255 255 255
255 255 255 255 255 255 255 253 250 255 255 255 245 198 141 131 138
140 139 139 138 138 125 114 202 154 137 137 137 136 127 114 217 255
255 255 255 255 255 255 255 255 255 255 255 255 255 255 255 255 255
255 255 255 255 255 255 255 255 255 255 255 255 255 255 255 255 255
253 200 136 143 134 127 127 125 120 200 255 255 255 255 255 255 255
250 174 138 138 131 112 116 121 123 123 122 122 119 169 138 113 125
125 120 121 120 121 224 255 255 255 207 118 117 128 125 118 118 118
118 217 255 255 255 255 255 255 255 255 243 151 146 146 147 146 134
113 109 157 253 255 255 255 255 255 255 255 255 255 255 255 255 255
255 255 255 255 255 255 255 255 220 167 135 141 144 144 144 144 143
144 138 120 169 237 156 142 141 141 140 129 129 237 255 255 255 255
255 255 255 255 255 255 255 255 255 255 255 255 255 255 255 255 255
255 255 255 255 255 255 255 255 255 255 255 255 255 255 255 251 173
138 146 133 132 131 128 141 239 255 255 255 255 255 255 244 137 121
129 128 127 128 128 128 128 127 127 133 219 138 119 132 130 125 126
125 127 230 255 255 255 214 124 122 131 131 124 123 123 123 214 255
255 255 255 255 255 255 255 240 158 151 152 152 150 136 116 114 173
252 255 255 255 255 255 255 255 255 255 255 255 255 255 255 255 255
255 255 255 255 204 147 144 148 148 148 148 148 148 150 146 129 164
240 242 159 147 147 146 145 132 136 242 255 255 255 255 255 255 255
255 255 255 255 255 255 255 255 255 255 255 255 255 255 255 255 255
255 255 255 255 255 255 255 255 255 255 255 255 255 232 150 149 145
136 136 136 130 193 255 255 255 255 255 255 244 145 132 138 133 133
133 133 133 132 132 135 199 246 138 125 138 135 131 131 130 133 231
255 255 255 220 128 127 135 135 129 128 129 126 213 255 255 255 255
255 255 255 255 244 163 156 156 156 155 140 121 117 170 251 255 255
255 255 255 255 255 255 255 255 255 255 255 255 255 255 255 255 251
198 149 151 154 153 153 153 153 155 156 150 136 170 240 255 246 167
152 151 151 150 137 139 242 255 255 255 255 255 255 255 255 255 255
255 255 255 255 255 255 255 255 255 255 255 255 255 255 255 255 255
255 255 255 255 255 255 255 255 255 255 253 195 145 155 142 141 140
137 160 246 255 255 255 255 255 245 153 145 148 139 138 138 137 137
138 134 154 244 246 144 129 143 140 136 136 135 139 232 255 255 255
221 132 131 139 139 134 134 134 132 215 255 255 255 255 255 255 255
255 248 173 159 160 160 160 148 127 122 158 249 255 255 255 255 255
255 255 255 255 255 255 255 255 255 255 255 255 255 206 154 157 158
158 158 157 160 163 160 149 151 197 247 255 255 250 178 157 155 155
155 144 137 230 255 255 255 255 255 255 255 255 255 255 255 255 255
255 255 255 255 255 255 255 255 255 255 255 255 255 255 255 255 255
255 255 255 255 255 255 255 255 240 157 156 151 146 145 145 144 230
255 255 255 255 255 246 159 151 157 147 146 144 142 143 142 141 138
196 244 153 134 148 146 141 140 140 141 229 255 255 255 216 136 136
144 143 139 139 138 140 223 255 255 255 255 255 255 255 255 253 189
164 165 165 165 156 136 126 141 237 255 255 255 255 255 255 255 255
255 255 255 255 255 255 255 255 255 234 168 161 163 163 162 163 166
166 158 152 182 235 255 255 255 255 253 198 162 160 160 160 153 136
209 255 255 255 255 255 255 255 255 255 255 255 255 255 255 255 255
255 255 255 255 255 255 255 255 255 255 255 255 255 235 240 255 255
255 255 255 255 255 253 192 153 158 151 150 150 145 207 255 255 255
255 255 246 173 164 165 153 155 158 156 148 147 147 146 150 225 167
138 152 152 146 146 145 143 216 255 255 255 211 137 140 148 147 143
143 143 146 232 255 255 255 255 255 255 255 255 255 214 169 169 170
169 165 148 133 134 203 255 255 255 255 255 255 255 255 255 255 255
255 255 255 255 255 255 207 165 168 168 167 168 170 166 153 177 219
253 255 255 255 255 255 255 219 170 165 164 164 161 146 178 247 255
255 255 255 255 255 255 255 255 255 255 255 255 255 255 255 255 255
255 255 255 255 255 255 255 255 255 255 207 175 243 255 255 255 255
255 255 255 210 156 162 155 155 155 150 199 255 255 255 255 255 253
243 241 233 211 171 155 165 160 152 151 151 149 201 179 143 156 159
150 150 150 148 205 255 255 255 198 140 146 153 151 148 148 148 157
240 255 255 255 255 255 255 255 255 255 239 177 174 174 174 173 162
144 137 160 239 255 255 255 255 255 255 255 255 255 255 255 255 255
255 242 230 184 171 172 172 172 171 163 155 193 246 255 255 255 255
255 229 191 238 242 182 170 169 168 168 160 153 217 255 255 255 255
255 255 255 255 255 255 255 255 255 255 255 255 247 255 255 255 255
255 255 255 255 255 255 255 207 159 194 246 255 255 255 255 255 255
218 159 164 160 160 159 157 193 253 255 255 255 255 255 255 255 255
255 228 157 160 167 157 157 156 155 186 196 147 158 166 156 156 155
153 186 251 255 255 178 145 151 157 155 154 154 153 172 248 255 255
255 255 255 255 255 255 255 254 200 177 178 178 178 174 161 146 145
182 245 255 255 255 255 255 255 255 255 255 255 255 245 214 169 153
169 176 176 176 175 166 151 192 252 255 255 255 255 255 225 171 151
232 254 205 177 174 173 173 171 159 163 229 255 255 255 255 255 255
255 255 255 255 255 255 255 243 212 190 250 255 255 255 255 255 255
255 255 255 255 211 165 163 207 252 255 255 255 255 255 205 160 167
165 164 164 161 197 253 255 255 255 255 255 255 255 255 255 245 166
159 168 162 161 161 160 182 220 157 160 172 163 160 159 159 169 246
255 243 159 150 156 161 159 158 158 157 195 254 255 255 255 255 255
255 255 255 255 255 232 185 182 182 182 182 178 164 152 152 186 235
255 255 255 255 255 255 255 255 247 220 185 172 160 152 173 181 181
181 178 162 154 223 255 255 255 255 254 222 177 168 156 233 255 235
188 180 177 177 177 174 163 170 222 251 255 255 255 255 255 255 255
255 255 245 219 181 166 185 250 255 255 255 255 255 255 255 255 255
255 214 173 170 166 211 249 255 255 255 247 177 165 170 170 169 169
166 211 255 255 230 217 241 255 255 255 255 255 237 164 161 169 166
166 166 165 186 239 172 163 176 171 165 165 165 163 219 255 214 152
156 163 165 164 164 163 160 220 255 255 255 255 255 255 255 255 255
255 255 252 214 186 187 187 187 187 183 174 162 159 169 208 238 249
255 253 249 233 210 187 179 183 182 167 156 176 186 185 185 182 167
158 201 247 255 253 240 203 177 180 174 161 234 255 252 216 189 183
182 181 181 179 171 169 194 225 245 252 255 255 253 249 232 209 183
172 176 176 190 251 255 255 255 255 255 255 255 255 255 255 217 182
177 173 169 194 231 249 241 203 163 172 174 174 174 174 170 226 255
255 198 164 176 197 227 244 252 241 191 158 167 172 171 171 171 169
197 252 201 166 176 180 170 170 169 168 176 214 169 157 162 169 169
169 169 168 181 243 255 255 255 255 255 255 255 255 255 255 255 255
246 207 190 191 191 191 191 190 185 178 171 170 174 185 195 195 188
184 183 187 189 190 187 174 162 181 190 189 189 189 182 172 168 183
203 198 184 182 187 187 180 168 236 255 255 247 209 192 187 186 186
185 184 181 175 175 182 192 197 198 194 186 180 177 180 182 183 181
194 251 255 255 255 255 255 255 255 255 255 255 221 188 183 180 179
176 176 183 175 170 175 179 179 179 178 178 186 245 255 255 203 170
177 173 175 182 187 174 165 170 175 176 176 176 176 173 215 255 231
176 176 186 179 175 174 174 173 169 163 165 171 173 173 173 173 172
207 254 255 255 255 255 255 255 255 255 255 255 255 255 255 242 206
195 195 195 195 195 195 194 192 190 189 189 189 191 192 194 195 195
195 194 192 180 170 201 198 195 194 194 193 190 187 186 186 188 191
192 192 192 185 174 237 255 255 255 244 207 196 191 190 190 190 189
189 187 186 184 184 184 185 186 187 188 187 187 187 186 198 251 255
255 255 255 255 255 255 255 255 255 223 193 188 184 185 184 183 182
182 183 184 184 184 183 183 180 215 254 255 255 208 179 186 182 181
180 179 179 179 180 181 181 181 180 180 185 241 255 252 204 179 186
189 180 179 179 179 178 177 177 179 179 178 178 178 187 241 255 255
255 255 255 255 255 255 255 255 255 255 255 255 254 242 213 200 200
199 199 199 199 199 199 199 199 199 199 199 199 199 199 199 199 198
187 176 220 217 200 198 198 197 197 197 197 197 197 196 196 196 196
190 180 239 255 255 255 254 243 214 200 197 194 194 194 194 194 194
193 193 193 193 192 192 192 192 192 192 191 202 251 255 255 255 255
255 255 255 255 255 255 226 196 195 190 189 189 189 189 189 188 188
188 188 188 187 200 245 255 255 255 212 187 194 187 187 186 186 186
186 186 186 186 185 185 183 215 254 255 255 244 196 185 193 191 184
184 184 184 184 184 183 183 183 183 183 220 255 255 255 255 255 255
255 255 255 255 255 255 255 255 255 255 255 247 224 207 204 204 203
204 203 203 203 203 203 203 203 203 203 204 205 205 201 190 199 238
247 216 205 203 201 201 201 201 201 201 201 201 201 201 194 193 242
255 255 255 255 255 247 225 207 203 200 198 198 198 198 198 198 197
197 197 197 197 197 198 198 198 216 253 255 255 255 255 255 255 255
255 255 255 247 217 203 200 196 194 194 194 193 193 193 193 193 192
199 239 255 255 255 255 216 192 200 193 191 191 191 191 191 190 190
190 190 189 209 248 255 255 255 254 237 199 191 197 195 189 189 189
189 188 188 188 188 188 218 252 255 255 255 255 255 255 255 255 255
255 255 255 255 255 255 255 255 255 253 241 224 211 209 210 209 209
208 208 208 209 209 210 210 208 205 207 216 235 250 255 255 246 223
212 209 208 207 206 206 206 207 207 206 205 215 244 255 255 255 255
255 255 255 253 241 222 209 207 206 205 203 203 202 202 203 203 204
204 204 209 221 240 253 255 255 255 255 255 255 255 255 255 255 255
255 253 234 213 205 203 200 199 198 198 198 198 198 212 242 255 255
255 255 255 232 204 203 202 199 197 196 196 196 195 195 195 198 218
249 255 255 255 255 255 254 240 210 195 199 199 196 194 193 193 193
193 198 224 252 255 255 255 255 255 255 255 255 255 255 255 255 255
255 255 255 255 255 255 255 255 254 245 236 223 217 216 214 214 214
214 215 218 220 227 236 249 255 255 255 255 255 255 254 242 227 216
215 213 213 213 215 218 229 242 253 255 255 255 255 255 255 255 255
255 255 254 245 234 223 216 214 212 211 211 212 213 218 227 238 250
255 255 255 255 255 255 255 255 255 255 255 255 255 255 255 255 254
249 236 222 213 208 207 206 208 218 235 251 255 255 255 255 255 255
253 248 235 223 214 209 205 204 203 206 210 219 240 254 255 255 255
255 255 255 255 255 249 234 217 211 208 204 201 203 207 219 242 255
255 255 255 255 255 255 255 255 255 255 255 255 255 255 255 255 255
255 255 255 255 255 255 255 255 253 251 247 246 245 245 246 250 252
253 255 255 255 255 255 255 255 255 255 255 255 253 251 247 246 244
246 251 253 255 255 255 255 255 255 255 255 255 255 255 255 255 255
255 255 253 251 247 245 245 245 246 251 253 255 255 255 255 255 255
255 255 255 255 255 255 255 255 255 255 255 255 255 255 255 255 253
249 245 243 246 251 253 255 255 255 255 255 255 255 255 255 255 255
254 252 248 245 243 244 246 251 255 255 255 255 255 255 255 255 255
255 255 255 255 253 251 249 246 245 245 251 255 255 255 255 255 255
255 255 255 255 255 255 255 255 255 255 255 255 255 255 255 255 255
255 255 255 255 255 255 255 255 255 255 255 255 255 255 255 255 255
255 255 255 255 255 255 255 255 255 255 255 255 255 255 255 255 255
255 255 255 255 255 255 255 255 255 255 255 255 255 255 255 255 255
255 255 255 255 255 255 255 255 255 255 255 255 255 255 255 255 255
255 255 255 255 255 255 255 255 255 255 255 255 255 255 255 255 255
255 255 255 255 255 255 255 255 255 255 255 255 255 255 255 255 255
255 255 255 255 255 255 255 255 255 255 255 255 255 255 255 255 255
255 255 255 255 255 255 255 255 255 255 255 255 255 255 255 255 255
255 255 255 255 255 255 255 255 255 255 255 255 255 255 255 255 255
255 255 255 255 255 255 255 255 255 255 255 255 255 255 255 255 255
255 255 255 255 255 255 255 255 255 255 255 255 255 255 255 255 255
255 255 255 255 255 255 255 255 255 255 255 255 255 255 255 255 255
255 255 255 255 255 255 255 255 255 255 255 255 255 255 255 255 255
255 255 255 255 255 255 255 255 255 255 255 255 255 255 255 255 255
255 255 255 255 255 255 255 255 255 255 255 255 255 255 255 255 255
255 255 255 255 255 255 255 255 255 255 255 255 255 255 255 255 255
255 255 255 255 255 255 255 255 255 255 255 255 255 255 255 255 255
255 255 255 255 255 255 255 255 255 255 255 255 255 255 255 255 255
255 255 255 255 255 255 255 255 255 255 255 255 255 255 255 255 255
255 255 255 255 255 255 255 255 255 255 255 255 255 255 255 255 255
255 255 255 255 255 255 255 255 255 255 255 255 255 255 255 255 255
255 255 255 255 255 255 255 255 255 255 255 255 255 255 255 255 255
255 255 255 255 255 255 255 255 255 255 255 255 255 255 255 255 255
255 255 255 255 255 255 255 255 255 255 255 255 255 255 255 255 255
255 255 255 255 255 255 255 255 255 255 255 255 255 255 255 255 255
255 255 255 255 255 255 255 255 255 255 255 255 255 255 255 255 255
255 255 255 255 255 255 255 255 255 255 255 255 255 255 255 255 255
255 255 255 255 255 255 255 255 255 255 255 255 255 255 255 255 255
255 255 255 255 255 255 255 255 255 255 255 255 255 255 255 255 255
255 255 255 255 255 255 255 255 255 255 255 255 255 255 255 255 255
255 255 255 255 255 255 255 255 255 255 255 255 255 255 255 255 255
255 255 255 255 255 255 255 255 255 255 255 255 255 255 255 255 255
255 255 255 255 255 255 255 255 255 255 255 255 255 255 255 255 255
255 255 255 255 255 255 255 255 255 255 255 255 255 255 255 255 255
255 255 255 255 255 255 255 255 255 255 255 255 255 255 255 255 255
255 255 255 255 255 255 255 255 255 255 255 255 255 255 255 255 255
255 255 255 255 255 255 255 255 255 255 255 255 255 255 255 255 255
255 255 255 255 255 255 255 255 255 255 255 255 255 255 255 255 255
255 255 255 255 255 255 255 255 255 255 255 255 255 255 255 255 255
255 255 255 255 255 255 255 255 255 255 255 255 255 255 255 255 255
255 255 255 255 255 255 255 255 255 255 255 255 255 255 255 255 255
255 255 255 255 255 255 255 255 255 255 255 255 255 255 255 255 255
255 255 255 255 255 255 255 255 255 255 255 255 255 255 255 255 255
255 255 255 255 255 255 255 255 255 255 255 255 255 255 255 255 255
255 255 255 255 255 255 255 255 255 255 255 255 255 255 255 255 255
255 255 255 255 255 255 255 255 255 255 255 255 255 255 255 255 255
255 255 255 255 255 255 255 255 255 255 255 255 255 255 255 255 255
255 255 255 255 255 255 255 255 255 255 255 255 255 255 255 255 255
255 255 255 255 255 255 255 255 255 255 255 255 255 255 255 255 255
255 255 255 255 255 255 255 255 255 255 255 255 255 255 255 255 255
255 255 255 255 255 255 255 255 255 255 255 255 255 255 255 255 255
255 255 255 255 255 255 255 255 255 255 255 255 255 255 255 255 255
255 255 255 255 255 255 255 255 255 255 255 255 255 255 255 255 255
255 255 255 255 255 255 255 255 255 255 255 255 255 255 255 255 255
255 255 255 255 255 255 255 255 255 255 255 255 255 255 255 255 255
255 255 255 255 255 255 255 255 255 255 255 255 255 255 255 255 255
255 255 255 255 255 255 255 255 255 255 255 255 255 255 255 255 255
255 255 255 255 255 255 255 255 255 255 255 255 255 255 255 255 255
255 255 255 255 255 255 255 255 255 255 255 255 255 255 255 255 255
255 255 255 255 255 255 255 255 255 255 255 255 255 255 255 255 255
255 255 255 255 255 255 255 255 255 255 255 255 255 255 255 255 255
255 255 255 255 255 255 255 255 255 255 255 255 255 255 255 255 255
255 255 255 255 255 255 255 255 255 255 255 255 255 255 255 255 255
255 255 255 255 255 255 255 255 255 255 255 255 255 255 255 255 255
255 255 255 255 255 255 255 255 255 255 255 255 255 255 255 255 255
255 255 255 255 255 255 255 255 255 255 255 255 255 255 255 255 255
255 255 255 255 255 255 255 255 255 255 255 255 255 255 255 255 255
255 255 255 255 255 255 255 255 255 255 255 255 255 255 255 255 255
255 255 255 255 255 255 255 255 255 255 255 255 255 255 255 255 255
255 255 255 255 255 255 255 255 255 255 255 255 255 255 255 255 255
255 255 255 255 255 255 255 255 255 255 255 255 255 255 255 255 255
255 255 255 255 255 255 255 255 255 255 255 255 255 255 255 255 255
255 255 255 255 255 255 255 255 255 255 255 255 255 255 255 255 255
255 255 255 255 255 255 255 255 255 255 255 255 255 255 255 255 255
255 255 255 255 255 255 255 255 255 255 255 255 255 255 255 255 255
255 255 255 255 255 255 255 255 255 255 255 255 255 255 255 255 255
255 255 255 255 255 255 255 255 255 255 255 255 255 255 255 255 255
255 255 255 255 255 255 255 255 255 255 255 255 255 255 255 255 255
255 255 255 255 255 255 255 255 255 255 255 255 255 255 255 255 255
255 255 255 255 255 255 255 255 255 255 255 255 255 255 255 255 255
255 255 255 255 255 255 255 255 255 255 255 255 255 255 255 255 255
255 255 255 255 255 255 255 255 255 255 255 255 255 255 255 255 255
255 255 255 255 255 255 255 255 255 255 255 255 255 255 255 255 255
255 255 255 255 255 255 255 255 255 255 255 255 255 255 255 255 255
255 255 255 255 255 255 255 255 255 255 255 255 255 255 255 255 255
255 255 255 255 255 255 255 255 255 255 255 255 255 255 255 255 255
255 255 255 255 255 255 255 255 255 255 255 255 255 255 255 255 255
255 255 255 255 255 255 255 255 255 255
