P2
45 150
255
255 255 255 255 255 255 255 255 255 255 255 255 255 255 255 255 255
255 255 255 255 255 255 255 255 255 255 255 255 255 255 255 255 255
255 255 255 255 255 255 255 255 255 255 255 255 255 255 255 255 255
255 255 255 255 255 255 255 255 255 255 255 255 255 255 255 255 255
255 255 255 255 255 255 255 255 255 255 255 255 255 255 255 255 255
255 255 255 255 255 255 255 255 255 255 255 255 255 255 255 255 255
255 255 255 255 255 255 255 255 255 255 255 255 255 255 255 255 255
255 255 255 255 255 255 255 255 255 255 255 255 255 255 255 255 255
255 255 255 255 255 255 255 255 255 255 255 255 255 255 255 255 255
255 255 255 255 255 255 255 255 255 255 255 255 255 255 255 255 255
255 255 255 255 255 255 255 255 255 255 255 255 255 255 255 255 255
255 255 255 255 255 255 255 255 255 255 255 255 255 255 255 255 255
252 241 227 214 200 189 189 193 200 213 227 241 248 255 255 255 255
255 255 255 255 255 255 255 255 255 255 255 255 255 255 255 255 255
255 255 255 255 255 255 255 255 252 228 180 132 93 72 60 59 54 51 54
54 61 70 94 129 185 230 251 255 255 255 255 255 255 255 255 255 255
255 255 255 255 255 255 255 255 255 255 255 255 255 255 255 218 140 87
51 54 56 55 56 55 56 56 54 55 54 54 53 51 49 78 145 223 255 255 255
255 255 255 255 255 255 255 255 255 255 255 255 255 255 255 255 255
255 255 245 159 81 54 56 57 57 57 56 56 56 56 55 55 55 54 55 54 54 54
53 51 74 174 248 255 255 255 255 255 255 255 255 255 255 255 255 255
255 255 255 255 255 255 245 146 59 57 58 58 58 57 57 56 56 56 57 57 56
55 55 55 55 54 54 53 54 51 53 150 244 255 255 255 255 255 255 255 255
255 255 255 255 255 255 255 255 255 255 156 58 58 58 58 58 58 58 59 61
63 64 65 65 66 65 64 62 59 55 54 54 55 54 52 50 163 255 255 255 255
255 255 255 255 255 255 255 255 255 255 255 255 255 210 75 59 59 58 58
59 60 63 64 65 64 65 65 65 66 69 72 76 78 77 68 57 54 54 53 52 66 212
255 255 255 255 255 255 255 255 255 255 255 255 255 255 255 255 132 60
60 59 59 58 58 56 52 51 51 50 52 51 53 53 53 55 57 62 71 82 81 63 54
54 53 51 125 255 255 255 255 255 255 255 255 255 255 255 255 255 255
255 239 91 60 60 59 59 52 44 41 40 40 41 45 51 54 55 56 54 52 52 54 56
61 75 77 56 54 53 51 80 255 255 255 255 255 255 255 255 255 255 255
255 255 255 255 218 76 61 59 60 56 39 31 32 58 105 148 177 189 200 200
193 184 160 128 82 59 51 59 69 60 54 54 53 63 255 255 255 255 255 255
255 255 255 255 255 255 255 255 255 216 72 61 61 60 55 33 59 166 230
255 255 255 255 255 255 255 255 255 252 235 188 113 52 58 58 55 54 53
58 255 255 255 255 255 255 255 255 255 255 255 255 255 255 255 222 82
63 61 60 57 47 162 255 255 255 255 255 255 255 255 255 255 255 255 255
255 228 98 54 55 55 55 53 63 255 255 255 255 255 255 255 255 255 255
255 255 255 255 255 231 94 68 61 61 60 57 74 178 237 248 255 255 255
255 255 255 255 255 255 252 234 171 74 55 55 55 55 52 92 255 255 255
255 255 255 255 255 255 255 255 255 255 255 255 240 104 79 63 61 60 60
57 56 79 120 162 186 210 217 217 217 210 193 167 129 85 54 55 56 56 56
55 47 145 255 255 255 255 255 255 255 255 255 255 255 255 255 255 255
249 126 79 80 61 60 60 60 60 58 56 55 56 61 64 63 61 59 56 53 54 56 57
56 56 56 55 53 57 209 255 255 255 255 255 255 255 255 255 255 255 255
255 255 255 255 184 66 86 81 64 61 61 61 59 60 60 59 59 59 58 57 58 58
58 57 57 57 57 56 57 54 46 117 251 255 255 255 255 255 255 255 255 255
255 255 255 255 255 255 255 233 112 67 85 85 71 62 61 61 61 60 60 59
60 59 59 59 58 58 57 58 57 57 57 56 47 54 192 255 255 255 255 255 255
255 255 255 255 255 255 255 255 255 255 255 255 209 91 64 77 88 84 74
66 62 60 61 60 60 59 58 58 59 59 59 59 59 59 55 46 47 157 255 255 255
255 255 255 255 255 255 255 255 255 255 255 255 255 255 255 255 252
202 93 60 65 75 84 85 82 77 72 68 66 66 65 65 65 64 64 62 57 50 41 44
149 244 255 255 255 255 255 255 255 255 255 255 255 255 255 255 255
255 255 255 255 255 252 224 125 65 53 56 61 66 70 72 72 72 70 68 65 62
57 52 46 40 37 79 184 255 255 255 255 255 255 255 255 255 255 255 255
255 255 255 255 255 255 255 255 255 255 255 255 248 198 132 75 55 44
46 46 48 48 50 49 47 43 38 37 56 92 173 241 255 255 255 255 255 255
255 255 255 255 255 255 255 255 255 255 255 255 255 255 255 255 255
255 255 255 255 248 221 184 140 114 99 80 73 70 78 84 95 105 130 164
213 241 251 255 255 255 255 255 255 255 255 255 255 255 255 255 255
255 255 255 255 255 255 255 255 255 255 252 218 159 123 107 106 121
154 202 237 241 241 201 129 89 68 59 61 69 89 135 205 251 255 255 255
255 255 255 255 255 255 255 255 255 255 255 255 255 255 255 255 255
255 235 146 75 57 60 60 60 59 57 67 154 237 167 70 56 58 59 59 59 58
57 55 65 154 244 255 255 255 255 255 255 255 255 255 255 255 255 255
255 255 255 255 255 255 236 120 59 64 64 63 64 62 62 62 60 55 89 65 60
60 61 59 59 59 59 59 59 57 53 141 244 255 255 255 255 255 255 255 255
255 255 255 255 255 255 255 255 255 252 138 62 65 64 64 64 64 63 63 62
62 60 56 61 61 60 61 60 60 59 59 59 58 58 57 54 174 255 255 255 255
255 255 255 255 255 255 255 255 255 255 255 255 255 205 75 65 65 65 64
63 64 65 64 63 62 62 63 61 62 61 61 61 63 66 66 61 59 59 59 55 70 226
255 255 255 255 255 255 255 255 255 255 255 255 255 255 255 255 132 67
66 66 66 65 65 69 77 84 78 64 63 62 62 62 61 59 59 62 68 80 84 67 59
58 58 55 156 255 255 255 255 255 255 255 255 255 255 255 255 255 255
255 240 102 67 65 66 65 61 54 52 58 70 88 78 62 62 62 62 59 48 42 45
52 60 78 82 61 59 59 54 101 255 255 255 255 255 255 255 255 255 255
255 255 255 255 255 222 88 67 66 66 64 50 34 58 73 64 68 82 65 63 63
62 51 43 108 146 135 84 62 79 66 60 59 57 78 255 255 255 255 255 255
255 255 255 255 255 255 255 255 255 213 79 68 67 66 61 38 110 216 234
202 98 76 68 63 63 61 46 152 251 255 252 213 90 69 67 60 60 59 59 255
255 255 255 255 255 255 255 255 255 255 255 255 255 255 211 81 68 67
67 61 60 223 255 255 255 173 74 70 64 63 62 74 230 255 255 255 248 157
65 65 60 60 59 61 255 255 255 255 255 255 255 255 255 255 255 255 255
255 255 217 85 70 67 67 61 92 248 255 255 255 214 95 88 79 71 63 83
238 255 255 255 255 173 63 63 60 59 59 63 255 255 255 255 255 255 255
255 255 255 255 255 255 255 255 229 99 72 68 67 63 78 230 255 255 255
228 93 78 74 61 51 84 238 255 255 255 255 157 64 61 60 59 57 80 255
255 255 255 255 255 255 255 255 255 255 255 255 255 255 243 115 79 68
68 65 61 191 255 255 255 233 109 91 88 82 76 136 252 255 255 255 255
119 64 61 61 60 55 122 255 255 255 255 255 255 255 255 255 255 255 255
255 255 255 252 146 88 72 70 68 58 123 255 255 255 252 239 239 239 238
238 248 255 255 255 255 211 81 62 61 61 59 52 178 255 255 255 255 255
255 255 255 255 255 255 255 255 255 255 255 185 90 94 87 78 67 74 225
255 255 255 255 255 255 255 255 255 255 255 255 243 127 68 65 63 62 59
80 230 255 255 255 255 255 255 255 255 255 255 255 255 255 255 255 255
231 94 71 68 59 49 48 173 255 255 255 255 255 255 255 255 255 255 255
255 179 92 87 80 69 61 54 159 255 255 255 255 255 255 255 255 255 255
255 255 255 255 255 255 255 249 181 141 138 134 130 125 202 255 255
255 255 255 255 255 255 255 255 255 233 102 73 73 68 59 49 84 231 255
255 255 255 255 255 255 255 255 255 255 255 255 255 255 255 255 255
255 255 255 255 255 255 255 255 255 255 255 255 255 255 255 255 255
255 242 204 205 172 106 101 95 118 146 171 255 255 255 255 255 255 255
255 255 255 255 255 255 255 255 255 255 255 255 255 255 255 255 255
251 251 255 255 255 255 255 255 255 255 255 255 255 255 128 56 61 59
57 54 96 255 255 255 255 255 255 255 255 255 255 255 255 255 255 255
255 255 255 255 255 252 232 188 159 136 133 150 170 213 241 255 255
255 255 255 255 255 248 104 58 62 63 62 59 97 255 255 255 255 255 255
255 255 255 255 255 255 255 255 255 255 255 255 255 229 152 89 61 62
62 63 60 59 66 99 158 230 255 255 255 255 255 248 105 58 62 62 62 60
99 255 255 255 255 255 255 255 255 255 255 255 255 255 255 255 255 255
255 207 104 64 69 70 69 68 68 68 67 67 62 58 82 175 241 255 255 255
248 106 58 63 63 63 59 100 255 255 255 255 255 255 255 255 255 255 255
255 255 255 255 255 255 214 92 69 71 70 70 69 69 69 69 68 67 67 67 62
58 103 209 255 255 248 107 59 63 64 62 60 100 255 255 255 255 255 255
255 255 255 255 255 255 255 255 255 255 242 118 71 71 71 71 70 71 70
70 69 69 68 68 67 67 65 62 75 175 248 248 107 59 64 64 63 61 101 255
255 255 255 255 255 255 255 255 255 255 255 255 255 255 255 186 75 73
71 72 71 71 71 74 78 81 82 78 70 68 68 67 66 63 56 132 223 108 59 64
63 63 60 102 255 255 255 255 255 255 255 255 255 255 255 255 255 255
255 249 129 75 73 72 72 72 66 60 61 67 71 73 86 91 81 70 67 67 67 65
61 89 79 60 64 64 63 61 102 255 255 255 255 255 255 255 255 255 255
255 255 255 255 255 240 96 76 74 72 72 63 46 86 153 183 171 143 88 75
88 90 78 68 66 66 65 61 45 58 65 64 64 62 102 255 255 255 255 255 255
255 255 255 255 255 255 255 255 255 220 89 75 74 73 70 49 137 237 255
255 255 252 230 157 90 78 91 85 70 67 67 66 62 62 64 65 64 62 104 255
255 255 255 255 255 255 255 255 255 255 255 255 255 255 212 90 76 74
74 68 62 223 255 255 255 255 255 255 252 218 130 81 87 90 75 67 66 65
65 66 65 64 62 105 255 255 255 255 255 255 255 255 255 255 255 255 255
255 255 218 96 79 75 74 69 82 241 255 255 255 255 255 255 255 255 249
175 94 79 92 80 67 66 66 65 65 65 63 105 255 255 255 255 255 255 255
255 255 255 255 255 255 255 255 232 113 83 75 74 71 65 201 255 255 255
255 255 255 255 255 255 252 218 125 78 91 85 68 66 66 65 65 64 106 255
255 255 255 255 255 255 255 255 255 255 255 255 255 255 249 143 92 75
74 73 64 115 241 255 255 255 255 255 255 255 255 255 255 240 152 82 86
90 72 66 65 65 64 106 255 255 255 255 255 255 255 255 255 255 255 255
255 255 255 255 189 96 81 74 75 71 59 161 248 255 255 255 255 255 255
255 255 255 255 249 184 95 82 90 77 66 66 64 106 255 255 255 255 255
255 255 255 255 255 255 255 255 255 255 255 235 123 94 77 74 74 69 64
156 237 255 255 255 255 255 255 255 255 255 255 252 209 114 76 91 80
67 63 107 255 255 255 255 255 255 255 255 255 255 255 255 255 255 255
255 252 188 102 90 83 81 78 71 66 136 232 255 255 255 255 255 255 255
255 255 255 255 227 128 77 90 83 66 108 255 255 255 255 255 255 255
255 255 255 255 255 255 255 255 255 255 249 145 94 96 94 88 78 70 67
105 228 255 255 255 255 255 255 255 255 255 255 255 240 149 82 85 76
108 255 255 255 255 255 255 255 255 255 255 255 255 255 255 255 255
255 255 231 177 173 172 169 167 164 161 166 219 255 255 255 255 255
255 255 255 255 255 255 255 249 172 98 89 154 255 255 255 255 255 255
255 255 255 255 255 255 255 255 255 255 255 255 255 255 255 255 255
255 255 255 255 255 255 255 255 255 255 255 255 255 255 255 255 255
255 252 239 234 251 255 255 255 255 255 255 255 255 255 255 255 255
255 255 255 255 255 255 255 255 255 255 255 255 255 255 255 255 255
255 255 255 255 255 255 255 255 255 255 255 255 255 255 255 255 255
255 255 255 255 255 255 255 255 255 255 255 255 255 255 255 255 255
255 255 255 255 255 255 255 255 255 255 255 255 255 255 255 255 255
255 255 255 255 255 255 255 255 255 255 255 255 255 255 255 255 255
255 255 255 255 255 255 255 255 255 255 255 255 255 255 255 255 255
255 255 255 255 255 255 255 255 255 255 255 255 255 255 255 255 255
255 255 255 255 255 255 255 255 255 255 255 255 255 255 255 255 255
255 255 255 255 255 255 255 255 255 255 255 255 255 255 255 255 255
255 255 255 255 255 255 255 255 255 255 255 255 255 255 255 255 255
255 255 255 255 255 255 255 255 255 255 255 255 255 255 255 255 255
255 255 255 255 255 255 255 255 255 255 255 255 255 255 255 255 255
255 255 255 255 255 255 255 255 255 255 255 255 255 255 255 255 255
255 255 255 255 255 255 255 255 255 255 255 255 255 255 255 255 255
255 255 255 255 255 255 255 255 255 255 255 255 255 255 255 255 255
255 255 255 255 255 255 255 255 255 255 255 255 255 255 255 255 255
255 255 255 255 255 255 255 255 255 255 255 255 255 255 255 255 255
255 255 255 255 255 255 255 255 255 255 255 255 255 255 255 255 255
255 255 255 255 255 255 255 255 255 255 255 255 255 255 255 255 255
255 255 255 255 255 255 255 255 255 255 255 255 255 255 255 255 255
255 255 255 255 255 255 255 255 255 255 255 255 255 255 255 255 255
255 255 255 255 255 255 255 255 255 255 255 255 255 255 255 255 255
255 255 255 255 255 255 255 255 255 255 255 255 255 255 255 255 255
255 255 255 255 255 255 255 255 255 255 255 255 255 255 255 255 255
255 255 255 249 245 245 245 245 245 245 255 255 255 255 255 255 255
255 255 255 230 226 224 223 222 221 220 237 255 255 255 255 255 255
255 255 255 255 255 255 255 255 255 255 255 255 255 249 140 111 110
108 106 104 122 240 255 255 255 255 255 255 255 255 252 146 96 89 81
76 72 67 125 255 255 255 255 255 255 255 255 255 255 255 255 255 255
255 255 255 255 255 207 88 80 79 77 76 62 166 255 255 255 255 255 255
255 255 255 255 209 105 90 73 71 70 67 71 205 255 255 255 255 255 255
255 255 255 255 255 255 255 255 255 255 255 255 148 87 82 82 82 74 96
231 255 255 255 255 255 255 255 255 255 255 249 167 88 88 72 71 71 62
124 255 255 255 255 255 255 255 255 255 255 255 255 255 255 255 255
255 237 111 88 83 82 80 65 178 255 255 255 255 255 255 255 255 255 255
255 255 231 105 95 76 71 71 67 80 226 255 255 255 255 255 255 255 255
255 255 255 255 255 255 255 255 197 94 86 84 82 75 92 234 255 255 255
255 255 255 255 255 255 255 255 255 252 167 89 86 72 71 70 59 184 255
255 255 255 255 255 255 255 255 255 255 255 255 255 255 255 159 93 84
83 83 67 151 255 255 255 255 255 255 255 255 255 255 255 255 255 255
216 97 95 74 71 71 61 138 255 255 255 255 255 255 255 255 255 255 255
255 255 255 255 246 127 93 84 83 82 73 203 255 255 255 255 255 255 255
255 255 255 255 255 255 255 243 124 95 77 72 71 66 97 255 255 255 255
255 255 255 255 255 255 255 255 255 255 255 241 110 91 84 84 78 88 241
255 255 255 255 255 255 255 255 255 255 255 255 255 255 252 159 90 84
72 71 68 80 255 255 255 255 255 255 255 255 255 255 255 255 255 255
255 221 107 90 85 85 75 107 251 255 255 255 255 255 255 255 255 255
255 255 255 255 255 255 182 84 88 72 72 70 71 255 255 255 255 255 255
255 255 255 255 255 255 255 255 255 216 104 89 86 85 73 117 255 255
255 255 255 255 255 255 255 255 255 255 255 255 255 255 197 83 89 73
72 70 66 255 255 255 255 255 255 255 255 255 255 255 255 255 255 255
216 106 89 87 86 72 116 255 255 255 255 255 255 255 255 255 255 255
255 255 255 255 255 193 81 91 73 73 70 67 255 255 255 255 255 255 255
255 255 255 255 255 255 255 255 219 107 91 87 86 74 103 248 255 255
255 255 255 255 255 255 255 255 255 255 255 255 255 178 80 88 73 73 71
70 255 255 255 255 255 255 255 255 255 255 255 255 255 255 255 224 115
92 87 87 77 78 233 255 255 255 255 255 255 255 255 255 255 255 255 255
255 255 144 83 85 74 73 71 72 255 255 255 255 255 255 255 255 255 255
255 255 255 255 255 241 121 96 87 87 82 63 186 255 255 255 255 255 255
255 255 255 255 255 255 255 255 242 100 86 80 74 73 69 85 255 255 255
255 255 255 255 255 255 255 255 255 255 255 255 246 145 100 88 87 85
63 115 247 255 255 255 255 255 255 255 255 255 255 255 255 255 184 66
88 76 74 73 67 112 255 255 255 255 255 255 255 255 255 255 255 255 255
255 255 255 184 103 89 88 86 77 59 183 255 255 255 255 255 255 255 255
255 255 255 255 238 108 74 82 75 74 74 62 160 255 255 255 255 255 255
255 255 255 255 255 255 255 255 255 255 220 111 95 89 88 84 63 72 201
255 255 255 255 255 255 255 255 255 255 245 137 59 81 78 75 75 73 71
213 255 255 255 255 255 255 255 255 255 255 255 255 255 255 255 255
250 151 104 89 88 87 82 57 67 180 241 255 255 255 255 255 255 255 221
125 53 75 80 76 76 75 68 122 252 255 255 255 255 255 255 255 255 255
255 255 255 255 255 255 255 255 210 113 97 89 88 87 80 59 55 111 173
212 234 234 227 199 139 81 54 71 78 77 76 76 74 69 194 255 255 255 255
255 255 255 255 255 255 255 255 255 255 255 255 255 255 249 166 105 92
88 87 86 82 69 52 42 54 64 67 63 49 48 61 74 78 78 77 77 76 67 132 252
255 255 255 255 255 255 255 255 255 255 255 255 255 255 255 255 255
255 255 233 144 103 90 88 87 86 85 80 73 65 61 61 63 68 74 78 79 78 78
77 76 71 101 231 255 255 255 255 255 255 255 255 255 255 255 255 255
255 255 255 255 255 255 255 255 223 133 103 92 87 87 86 86 85 84 82 82
80 81 80 81 79 79 78 77 72 90 208 255 255 255 255 255 255 255 255 255
255 255 255 255 255 255 255 255 255 255 255 255 255 252 226 144 105 94
88 87 86 85 85 84 83 82 82 81 80 80 80 78 71 104 202 255 255 255 255
255 255 255 255 255 255 255 255 255 255 255 255 255 255 255 255 255
255 255 255 255 236 167 111 96 90 88 85 84 84 84 82 82 81 81 80 76 76
148 236 255 255 255 255 255 255 255 255 255 255 255 255 255 255 255
255 255 255 255 255 255 255 255 255 255 255 255 249 211 153 112 97 90
88 86 84 83 82 80 80 85 132 191 252 255 255 255 255 255 255 255 255
255 255 255 255 255 255 255 255 255 255 255 255 255 255 255 255 255
255 255 255 255 255 252 230 188 154 124 110 103 105 107 133 144 183
209 220 241 251 255 255 255 255 255 255 255 255 255 255 255 255 255
255 255 255 255 255 255 255 255 255 255 218 210 209 208 207 207 207
222 255 252 246 240 234 227 178 115 66 56 47 56 79 135 216 255 255 255
255 255 255 255 255 255 255 255 255 255 255 255 255 255 255 255 255
255 219 74 51 48 44 42 42 41 130 255 255 255 255 231 124 49 48 54 58
59 57 50 43 66 177 248 255 255 255 255 255 255 255 255 255 255 255 255
255 255 255 255 255 255 248 130 75 76 75 73 70 67 82 204 255 255 255
231 112 50 65 74 79 79 80 79 76 70 56 55 169 255 255 255 255 255 255
255 255 255 255 255 255 255 255 255 255 255 255 212 96 97 93 93 91 84
87 194 255 255 255 241 116 57 77 83 83 82 82 81 80 79 79 76 65 72 201
255 255 255 255 255 255 255 255 255 255 255 255 255 255 255 255 255
165 100 97 95 93 90 77 184 255 255 255 255 156 60 83 87 84 83 82 82 81
81 80 79 78 77 64 99 240 255 255 255 255 255 255 255 255 255 255 255
255 255 255 255 246 129 105 96 95 94 78 137 252 255 255 255 219 78 82
90 85 85 84 83 82 80 81 83 80 79 78 75 61 177 255 255 255 255 255 255
255 255 255 255 255 255 255 255 255 241 120 103 96 94 90 84 221 255
255 255 252 124 74 93 87 86 85 83 80 79 117 139 105 92 79 78 78 68 103
255 255 255 255 255 255 255 255 255 255 255 255 255 255 255 221 113
101 97 96 84 118 251 255 255 255 188 72 93 91 86 86 86 80 86 172 242
252 185 96 89 79 79 74 83 255 255 255 255 255 255 255 255 255 255 255
255 255 255 255 214 111 100 97 96 79 129 255 255 255 237 109 82 97 88
87 86 84 70 171 255 255 255 209 91 98 78 78 77 72 255 255 255 255 255
255 255 255 255 255 255 255 255 255 255 220 112 101 97 97 78 81 237
255 248 133 64 97 92 88 87 86 74 132 252 255 255 255 189 82 101 79 79
77 70 255 255 255 255 255 255 255 255 255 255 255 255 255 255 255 225
118 103 98 97 82 46 131 187 126 60 89 96 88 88 87 82 88 228 255 255
255 255 135 80 99 80 79 76 74 255 255 255 255 255 255 255 255 255 255
255 255 255 255 255 241 123 106 98 97 89 55 33 37 42 76 97 91 90 88 87
73 171 255 255 255 255 225 80 87 95 80 79 76 87 255 255 255 255 255
255 255 255 255 255 255 255 255 255 255 249 161 110 98 97 97 80 55 55
73 91 92 90 90 89 80 122 241 255 255 255 241 125 60 94 87 80 79 73 113
255 255 255 255 255 255 255 255 255 255 255 255 255 255 255 255 211
120 104 98 98 95 89 88 92 92 91 91 90 85 85 202 255 255 255 244 138 50
75 94 81 80 80 67 149 255 255 255 255 255 255 255 255 255 255 255 255
255 255 255 255 250 153 108 100 98 97 96 95 94 93 92 91 88 81 175 255
255 255 227 130 46 63 90 86 81 80 78 77 210 255 255 255 255 255 255
255 255 255 255 255 255 255 255 255 255 255 228 141 104 100 97 96 95
94 93 92 88 83 161 255 255 255 215 114 55 64 84 87 81 81 80 72 129 252
255 255 255 255 255 255 255 255 255 255 255 255 255 255 255 255 255
255 231 151 108 98 97 95 94 91 87 100 171 248 255 255 248 122 69 90 93
89 83 82 80 78 88 215 255 255 255 255 255 255 255 255 255 255 255 255
255 255 255 255 255 255 255 205 159 116 77 76 78 78 116 166 217 255
255 255 255 252 166 129 111 91 81 74 68 64 65 169 255 255 255 255 255
255 255 255 255 255 255 255 255 255 255 255 255 255 255 239 90 39 36
31 30 33 46 207 255 255 255 255 255 255 255 250 245 127 59 51 43 36 31
39 187 255 255 255 255 255 255 255 255 255 255 255 255 255 255 255 255
255 255 255 192 66 68 64 59 55 50 79 230 255 255 255 255 255 255 255
255 255 206 104 85 72 63 56 50 105 244 255 255 255 255 255 255 255 255
255 255 255 255 255 255 255 255 255 255 133 96 99 94 92 88 76 170 255
255 255 255 255 255 255 255 255 255 250 166 102 85 80 78 75 68 201 255
255 255 255 255 255 255 255 255 255 255 255 255 255 255 255 255 233
105 110 101 99 99 90 103 234 255 255 255 255 255 255 255 255 255 255
255 234 125 94 83 82 81 65 125 255 255 255 255 255 255 255 255 255 255
255 255 255 255 255 255 255 191 98 109 101 101 97 81 180 255 255 255
255 255 255 255 255 255 255 255 255 249 183 100 85 81 81 75 84 226 255
255 255 255 255 255 255 255 255 255 255 255 255 255 255 255 160 108
105 101 100 92 101 238 255 255 255 255 255 255 255 255 255 255 255 255
255 233 119 94 83 82 80 65 184 255 255 255 255 255 255 255 255 255 255
255 255 255 255 255 249 134 113 103 102 101 81 153 255 255 255 255 255
255 255 255 255 255 255 255 255 255 249 153 101 82 82 81 67 136 255
255 255 255 255 255 255 255 255 255 255 255 255 255 255 243 130 112
103 101 99 83 204 255 255 255 255 255 255 255 255 255 255 255 255 255
255 255 177 100 88 82 81 73 100 255 255 255 255 255 255 255 255 255
255 255 255 255 255 255 238 118 110 103 102 93 93 241 255 255 255 255
255 255 255 255 255 255 255 255 255 255 255 197 98 94 82 81 77 84 255
255 255 255 255 255 255 255 255 255 255 255 255 255 255 222 116 110
104 102 90 111 251 255 255 255 255 255 255 255 255 255 255 255 255 255
255 255 195 92 99 82 81 78 75 255 255 255 255 255 255 255 255 255 255
255 255 255 255 255 217 114 107 104 103 86 110 255 255 255 255 255 255
255 255 255 255 255 255 255 255 255 255 182 88 102 83 82 79 71 255 255
255 255 255 255 255 255 255 255 255 255 255 255 255 217 114 107 103
103 85 87 241 255 255 255 255 255 255 255 255 255 255 255 255 255 255
255 155 83 104 82 81 79 73 255 255 255 255 255 255 255 255 255 255 255
255 255 255 255 220 116 108 103 102 86 60 216 255 255 255 255 255 255
255 255 255 255 255 255 255 255 249 118 87 103 82 81 79 76 255 255 255
255 255 255 255 255 255 255 255 255 255 255 255 225 121 109 104 103 89
51 148 255 255 255 255 255 255 255 255 255 255 255 255 255 255 221 81
91 100 82 81 79 76 255 255 255 255 255 255 255 255 255 255 255 255 255
255 255 241 126 110 103 103 94 53 59 212 255 255 255 255 255 255 255
255 255 255 255 255 252 136 62 100 94 83 82 78 90 255 255 255 255 255
255 255 255 255 255 255 255 255 255 255 249 147 112 105 103 99 69 37
106 234 255 255 255 255 255 255 255 255 255 255 255 177 67 70 106 89
83 81 75 116 255 255 255 255 255 255 255 255 255 255 255 255 255 255
255 255 189 110 104 103 101 85 44 33 106 223 255 255 255 255 255 255
255 255 245 169 68 57 88 103 84 83 82 69 159 255 255 255 255 255 255
255 255 255 255 255 255 255 255 255 255 220 116 106 103 102 98 70 33
30 70 158 223 244 248 251 252 238 200 124 50 51 70 103 90 83 82 80 75
214 255 255 255 255 255 255 255 255 255 255 255 255 255 255 255 255
250 156 107 103 102 101 90 59 32 25 30 51 90 116 125 106 81 48 40 46
62 95 97 84 83 82 76 125 252 255 255 255 255 255 255 255 255 255 255
255 255 255 255 255 255 255 210 115 105 102 101 99 88 62 38 27 25 27
29 32 33 36 39 45 62 89 96 86 84 84 81 71 195 255 255 255 255 255 255
255 255 255 255 255 255 255 255 255 255 255 255 250 165 104 102 100 99
98 89 74 55 42 36 35 36 39 45 55 72 89 93 86 84 84 83 74 128 252 255
255 255 255 255 255 255 255 255 255 255 255 255 255 255 255 255 255
255 233 140 102 101 100 98 97 95 87 78 72 67 68 71 77 85 90 89 86 85
84 83 78 98 228 255 255 255 255 255 255 255 255 255 255 255 255 255
255 255 255 255 255 255 255 255 220 129 99 99 98 97 96 95 94 92 91 90
90 89 89 88 87 86 86 85 80 90 203 255 255 255 255 255 255 255 255 255
255 255 255 255 255 255 255 255 255 255 255 255 255 252 222 139 98 98
98 97 96 94 93 92 92 91 90 89 87 87 86 84 77 105 203 255 255 255 255
255 255 255 255 255 255 255 255 255 255 255 255 255 255 255 255 255
255 255 255 255 233 162 104 95 96 95 94 93 92 92 90 90 89 88 86 83 82
137 233 255 255 255 255 255 255 255 255 255 255 255 255 255 255 255
255 255 255 255 255 255 255 255 255 255 255 255 249 205 142 103 94 92
91 92 91 90 88 86 85 90 125 189 248 255 255 255 255 255 255 255 255
255 255 255 255 255 255 255 255 255 255 255 255 255 255 255 255 255
255 255 255 255 255 252 224 179 138 115 104 102 97 106 125 163 212 245
255 255 255 255 255 255 255 255 255 255 255 255 255 255 255 255 255
255 255 255 255 255 255 255 255 255 255 255 255 255 255 255 255 255
255 252 243 237 231 237 236 252 255 255 255 255 255 255 255 255 255
255 255 255 255 255 255 255 255 255 255 255 255 255 255 255 255 255
255 255 255 255 255 255 255 255 255 255 255 255 255 255 255 255 255
255 255 255 255 255 255 255 255 255 255 255 255 255 255 255 255 255
255 255 255 255 255 255 255 255 255 255 255 255 255 255 255 255 255
255 255 255 255 255 255 255 255 255 255 255 255 255 255 255 255 255
255 255 255 255 255 255 255 255 255 255 255 255 255 255 255 255 255
255 255 255 255 255 255 255 255 255 255 255 255 255 255 255 255 255
255 255 255 255 255 255 255 255 255 255 255 255 255 255 255 255 255
255 255 255 255 255 255 255 255 255 255 255 255 255 255 255 255 255
255 255 255 255 255 255 255 255 255 255 255 255 255 255 255 255 255
255 255 255 255 255 255 255 255 255 255 255 255
