P2
18 58
255
254 254 254 254 254 254 254 254 254 254 254 254 254 254 254 254 254
255 254 254 254 254 254 254 134 134 134 134 134 254 254 254 254 254
254 255 254 254 254 254 254 134 134 134 134 134 134 134 134 134 254
254 254 255 254 254 254 254 254 124 124 124 178 178 124 178 254 254
254 254 254 255 254 254 254 254 124 178 124 178 178 178 124 178 178
178 254 254 254 255 254 254 254 254 124 178 124 124 178 178 178 124
178 178 178 254 254 255 254 254 254 254 124 124 178 178 178 178 124
124 124 124 254 254 254 255 254 254 254 254 254 254 178 178 178 178
178 178 178 254 254 254 254 255 254 254 254 254 254 124 124 134 124
124 134 254 254 254 254 254 254 255 254 254 254 254 124 124 124 134
124 124 134 124 124 124 254 254 254 255 254 254 254 124 124 124 124
134 134 134 134 124 124 124 124 254 254 255 254 254 254 178 178 124
134 178 134 134 178 134 124 178 178 254 254 255 254 254 254 178 178
178 134 134 134 134 134 134 178 178 178 254 254 255 254 254 254 178
178 134 134 134 134 134 134 134 134 178 178 254 254 255 254 254 254
254 254 134 134 134 254 254 134 134 134 254 254 254 254 255 254 254
254 254 124 124 124 254 254 254 254 124 124 124 254 254 254 255 254
254 254 124 124 124 124 254 254 254 254 124 124 124 124 254 254 255
254 254 254 254 254 254 254 254 254 254 254 254 254 254 254 254 254
255 254 254 254 254 254 254 254 254 254 254 254 254 254 254 254 254
254 255 254 254 254 130 130 130 130 254 254 254 254 130 130 130 130
254 254 255 254 254 254 254 134 134 134 254 254 254 254 134 134 134
254 254 254 255 254 254 254 254 254 146 146 146 254 254 146 146 146
254 254 254 254 255 254 254 254 187 187 149 149 149 149 149 149 149
149 187 187 254 254 255 254 254 254 189 189 189 152 152 152 152 152
152 189 189 189 254 254 255 254 254 254 191 191 146 155 191 155 155
191 155 146 191 191 254 254 255 254 254 254 150 150 150 150 158 158
158 158 150 150 150 150 254 254 255 254 254 254 254 153 153 153 161
153 153 161 153 153 153 254 254 254 255 254 254 254 254 254 156 156
164 156 156 164 254 254 254 254 254 254 255 254 254 254 254 254 254
199 199 199 199 199 199 199 254 254 254 254 255 254 254 254 254 162
162 201 201 201 201 162 162 162 162 254 254 254 255 254 254 254 254
166 202 166 166 202 202 202 166 202 202 202 254 254 255 254 254 254
254 169 204 169 204 204 204 169 204 204 204 254 254 254 255 254 254
254 254 254 172 172 172 206 206 172 206 254 254 254 254 254 255 254
254 254 254 254 181 181 181 181 181 181 181 181 181 254 254 254 255
254 254 254 254 254 254 184 184 184 184 184 254 254 254 254 254 254
255 254 254 254 254 254 254 254 254 254 254 254 254 254 254 254 254
254 255 255 255 255 255 255 255 255 255 255 255 255 255 255 255 255
255 255 255 255 255 255 255 255 255 255 255 255 255 255 255 255 255
255 255 255 255 255 255 255 255 255 255 255 255 255 255 255 255 255
255 255 255 255 255 255 255 255 255 255 255 255 255 255 255 255 255
255 255 255 255 255 255 255 255 255 255 255 255 255 255 255 255 255
255 255 255 255 255 255 255 255 255 255 255 255 255 255 255 255 255
255 255 255 255 255 255 255 255 255 255 255 255 255 255 255 255 255
255 255 255 255 255 255 255 255 255 255 255 255 255 255 255 255 255
255 255 255 255 255 255 255 255 255 255 255 255 255 255 255 255 255
255 255 255 255 255 255 255 255 255 255 255 255 255 255 255 255 255
255 255 255 255 255 255 255 255 255 255 255 255 255 255 255 255 255
255 255 255 255 255 255 255 255 255 255 255 255 255 255 255 255 255
255 255 255 255 255 255 255 255 255 255 255 255 255 255 255 255 255
255 255 255 255 255 255 255 255 255 255 255 255 255 255 255 255 255
255 255 255 255 255 255 255 255 255 255 255 255 255 255 255 255 255
255 255 255 255 255 255 255 255 255 255 255 255 255 255 255 255 255
255 255 255 255 255 255 255 255 255 255 255 255 255 255 255 255 255
255 255 255 255 255 255 255 255 255 255 255 255 255 255 255 255 255
255 255 255 255 255 255 255 255 255 255 255 255 255 255 255 255 255
255 255 255 255 255 255 255 255 255 255 255 255 255 255 255 255 255
255 255 255 255 255 255 255 255 255 255 255 255 255 255 255 255 255
255 255 255 255 255 255 255 255 255 255 255 255 255 255 255 255 255
255 255 255 255 255 255 255 255 255 255 255 255 255 255 255 255 255
255 255 255 255 255 255 255
